<?xml version="1.0" standalone="no"?>
<!DOCTYPE svg PUBLIC "-//W3C//DTD SVG 20010904//EN"
 "http://www.w3.org/TR/2001/REC-SVG-20010904/DTD/svg10.dtd">
<svg version="1.0" xmlns="http://www.w3.org/2000/svg"
 width="512.000000pt" height="512.000000pt" viewBox="0 0 512.000000 512.000000"
 preserveAspectRatio="xMidYMid meet">
<metadata>
Created by potrace 1.14, written by Peter Selinger 2001-2017
</metadata>
<g transform="translate(0.000000,512.000000) scale(0.100000,-0.100000)"
fill="#000000" stroke="none">
<path d="M1700 5104 c-464 -59 -768 -262 -759 -506 3 -74 52 -181 108 -231 22
-20 44 -45 50 -56 7 -13 11 -141 11 -373 l0 -353 -283 -1 c-384 -1 -341 20
-586 -287 -78 -97 -146 -190 -150 -205 -6 -21 -7 -268 -2 -380 1 -12 19 -42
41 -66 l40 -43 0 -1000 0 -1000 -40 -12 c-54 -16 -107 -65 -121 -110 -7 -22
-9 -100 -7 -201 3 -185 10 -205 76 -250 l36 -25 2446 0 2446 0 37 25 c67 46
75 73 77 262 1 124 -3 175 -13 201 -16 37 -82 97 -108 97 -52 0 -49 -69 -49
1012 l0 1001 40 43 c22 24 40 52 41 61 7 118 2 381 -8 402 -6 14 -83 114 -170
221 -134 166 -166 199 -213 224 l-54 30 -201 0 -200 1 -3 345 c-1 190 0 354 2
366 3 11 22 36 41 55 79 75 125 171 125 260 0 223 -289 424 -695 483 -23 4
-52 9 -65 13 -14 4 -421 8 -905 9 -687 1 -903 -1 -985 -12z m497 -168 c250
-41 406 -94 513 -174 126 -95 136 -175 35 -281 -103 -108 -99 -89 -100 -521
l0 -375 -680 0 -680 0 -5 380 c-6 432 -2 414 -94 508 -95 98 -98 166 -13 251
103 102 321 183 572 211 33 4 62 9 64 11 5 5 351 -4 388 -10z m1373 0 c19 -4
61 -12 94 -17 184 -32 370 -111 452 -194 86 -85 83 -153 -8 -246 -27 -28 -61
-74 -74 -102 -24 -52 -24 -53 -24 -422 l0 -370 -587 1 c-324 0 -592 2 -598 3
-15 2 -13 700 2 726 6 11 31 38 54 60 24 23 56 68 73 105 73 156 13 314 -164
435 l-55 37 400 -5 c220 -2 416 -7 435 -11z m-2707 -1534 c-3 -13 -122 -212
-139 -232 -10 -12 -43 -15 -186 -13 -95 1 -176 2 -181 2 -15 2 186 241 207
246 66 14 302 12 299 -3z m583 -27 c-93 -163 -126 -215 -139 -216 -49 -4 -361
-3 -371 1 -13 5 30 85 118 220 l23 35 196 0 196 0 -23 -40z m550 32 c3 -3 -15
-60 -42 -126 -43 -110 -50 -121 -73 -122 -118 -4 -354 -3 -357 2 -2 3 17 39
41 78 25 40 45 75 45 77 0 4 45 74 58 89 9 11 317 13 328 2z m459 4 c19 -1 20
-8 20 -126 0 -118 -1 -125 -20 -126 -63 -3 -356 -1 -359 2 -6 7 90 240 101
247 9 6 152 7 258 3z m473 -5 c10 -11 101 -240 96 -245 -2 -3 -87 -5 -189 -5
-158 -1 -185 1 -186 14 -1 8 -2 65 -3 125 l-1 110 30 5 c44 7 244 4 253 -4z
m526 3 c8 -11 146 -247 146 -250 0 -3 -306 -3 -371 0 -11 1 -31 38 -63 120
-25 66 -46 124 -46 128 0 8 328 10 334 2z m588 2 c4 -1 26 -34 50 -73 23 -40
46 -74 50 -76 5 -2 8 -8 8 -13 0 -5 11 -27 25 -49 14 -22 24 -40 23 -41 -4 -1
-359 -1 -380 0 -13 1 -128 169 -128 188 0 3 -9 18 -20 33 -11 16 -16 30 -10
32 8 2 358 2 382 -1z m532 -18 c22 -16 201 -232 194 -234 -25 -7 -355 -1 -365
6 -7 6 -44 62 -82 125 -51 84 -66 116 -56 120 8 3 75 4 149 3 115 -1 139 -4
160 -20z m-3893 -432 c5 -132 2 -196 -7 -205 -25 -25 -151 -136 -177 -156 -24
-19 -30 -20 -45 -8 -35 29 -168 144 -182 157 -11 11 -15 40 -15 115 -1 56 0
106 2 112 3 7 70 11 213 11 l210 0 1 -26z m597 -88 l3 -111 -102 -89 c-55 -48
-104 -89 -109 -91 -4 -2 -30 16 -57 40 -27 24 -74 65 -105 91 l-55 48 0 107
c0 59 4 110 9 113 5 3 100 5 211 5 l202 -1 3 -112z m599 0 l0 -113 -103 -90
c-56 -50 -105 -90 -109 -90 -7 0 -93 73 -177 149 l-38 34 0 112 0 111 213 1
213 0 1 -114z m598 3 c0 -60 -4 -114 -10 -120 -5 -7 -48 -46 -95 -87 -47 -40
-88 -78 -91 -83 -11 -14 -25 -5 -128 84 -111 95 -109 90 -103 236 l3 81 212
-1 212 -1 0 -109z m595 -8 c0 -65 -3 -118 -7 -118 -5 0 -33 -23 -63 -51 -114
-106 -152 -132 -162 -111 -1 4 -41 40 -88 81 -47 41 -89 77 -94 82 -8 7 -17
214 -10 230 2 3 98 6 213 6 l211 0 0 -119z m600 7 l0 -112 -100 -89 c-55 -49
-105 -90 -110 -92 -5 -2 -56 38 -113 88 l-104 91 0 113 0 113 214 0 213 0 0
-112z m596 -1 l-1 -113 -36 -33 c-101 -91 -164 -143 -175 -143 -7 0 -57 40
-113 88 l-101 88 0 108 c0 59 2 110 5 113 3 2 99 5 213 5 l208 0 0 -113z m595
107 c0 -3 2 -53 2 -110 2 -80 -1 -107 -13 -120 -28 -31 -190 -171 -198 -171
-7 0 -79 60 -176 148 l-39 34 1 92 c0 50 0 101 1 112 1 21 4 22 211 21 116 -1
210 -3 211 -6z m-4020 -436 c108 -96 172 -145 194 -151 62 -15 118 20 294 183
l34 32 31 -26 c17 -14 61 -52 97 -84 97 -87 114 -99 147 -105 37 -8 96 11 125
39 20 19 145 128 187 163 13 11 21 8 50 -19 64 -59 175 -153 200 -170 58 -40
112 -18 248 102 57 50 109 91 115 91 7 0 33 -20 58 -43 76 -71 160 -141 183
-154 30 -18 88 -16 116 4 14 9 73 58 131 109 l106 93 49 -43 c255 -224 244
-223 429 -62 l119 104 59 -51 c33 -29 87 -76 121 -104 96 -83 145 -83 239 0
34 30 89 77 121 105 l59 52 76 -67 c42 -38 78 -71 81 -74 25 -30 107 -79 131
-79 37 0 89 21 108 43 7 10 17 17 22 17 11 0 12 -1850 2 -1851 -12 -1 -216 -1
-234 0 -14 1 -16 75 -16 744 0 812 3 768 -58 830 -15 15 -44 31 -64 37 -23 6
-265 10 -656 9 -499 0 -626 -3 -652 -14 -45 -19 -92 -72 -99 -114 -4 -20 -7
-363 -7 -763 l0 -728 -21 -1 c-27 -1 -2586 -1 -2608 0 -17 1 -18 52 -18 926 0
509 3 925 6 925 3 0 19 -11 36 -25 75 -64 129 -46 278 88 101 93 109 98 129
79 9 -9 33 -31 52 -47z m3509 -647 c0 -260 0 -1517 0 -1625 l0 -103 -595 0
c-469 0 -595 3 -596 13 -1 16 -1 1861 0 1864 1 1 269 2 596 3 l595 0 0 -152z
m-1363 -1600 l-1 -128 -1408 0 -1408 0 0 128 0 129 1409 0 1409 0 -1 -129z
m1963 0 l0 -128 -214 0 -214 0 3 123 c1 67 3 125 3 128 1 3 97 6 212 6 l210
-1 0 -128z"/>
<path d="M2168 4670 c-31 -24 -41 -66 -23 -100 21 -40 109 -120 141 -129 34
-9 78 9 94 38 23 44 12 71 -57 142 -74 77 -107 87 -155 49z"/>
<path d="M1513 4603 c-27 -5 -63 -48 -63 -75 0 -30 25 -70 73 -114 69 -65 93
-73 145 -45 26 14 44 65 33 95 -16 41 -131 148 -155 145 -6 -1 -21 -4 -33 -6z"/>
<path d="M1905 4324 c-24 -22 -27 -31 -22 -65 4 -33 16 -51 67 -100 72 -69
112 -78 155 -34 41 40 34 82 -22 141 -88 91 -128 105 -178 58z"/>
<path d="M1595 4091 c-25 -11 -52 -41 -55 -61 -6 -41 5 -61 58 -115 82 -82
111 -91 161 -49 49 41 44 82 -21 151 -43 45 -103 86 -120 82 -2 0 -12 -4 -23
-8z"/>
<path d="M2265 3998 c-35 -20 -46 -41 -41 -82 4 -32 16 -49 66 -97 59 -57 71
-63 115 -60 31 3 65 47 65 85 0 25 -11 44 -47 82 -80 83 -112 98 -158 72z"/>
<path d="M3102 4350 c-62 -4 -77 -9 -93 -29 -19 -23 -25 -77 -11 -97 4 -5 18
-18 32 -27 22 -15 63 -17 388 -17 l364 0 30 30 c26 26 30 36 25 66 -7 40 -39
74 -71 74 -12 0 -149 1 -306 3 -157 1 -318 0 -358 -3z"/>
<path d="M719 2210 c-45 -13 -80 -42 -101 -84 -21 -40 -21 -52 -21 -621 0
-319 3 -593 7 -610 11 -43 49 -90 90 -109 33 -15 114 -17 972 -16 l937 0 40
23 c26 14 49 38 64 66 l23 44 0 588 c0 390 -4 597 -11 616 -15 42 -68 92 -109
103 -42 12 -1852 12 -1891 0z m1839 -418 l-3 -257 -200 -1 c-110 0 -205 1
-210 3 -6 2 -11 31 -12 64 -5 156 -97 263 -235 273 -161 11 -278 -109 -278
-283 l0 -56 -77 1 c-43 1 -81 2 -85 3 -5 0 -8 31 -8 69 0 244 -283 360 -444
181 -48 -54 -66 -105 -66 -193 0 -31 -3 -57 -7 -57 -5 -1 -43 -2 -86 -3 l-77
-1 0 257 0 257 895 0 895 0 -2 -257z m-1300 -118 c19 -22 22 -35 20 -83 l-3
-56 -80 0 -80 0 -3 54 c-6 107 81 157 146 85z m680 1 c21 -25 24 -37 24 -85 0
-58 4 -56 -79 -54 -43 1 -82 3 -87 3 -4 1 -6 29 -4 63 4 52 9 64 33 84 36 28
82 24 113 -11z m620 -522 l2 -213 -84 0 -83 0 -5 78 c-10 160 -103 255 -253
256 -153 2 -254 -103 -257 -264 l-1 -70 -86 0 -86 0 -1 73 c-2 85 -25 145 -77
195 -67 65 -187 89 -269 53 -104 -44 -159 -127 -162 -244 l-2 -72 -212 -3
-212 -2 -1 100 c0 55 0 120 0 145 0 25 0 75 0 113 l1 68 893 -1 892 0 3 -212z
m-1045 -72 c14 -13 20 -36 22 -80 l3 -61 -87 0 -87 0 2 53 c2 62 16 94 47 107
30 13 78 4 100 -19z m678 0 c25 -26 29 -37 29 -85 l0 -56 -85 0 -85 0 0 58 c1
59 10 80 45 100 33 19 65 13 96 -17z"/>
<path d="M3485 1364 c-5 -1 -22 -5 -37 -8 -14 -3 -41 -18 -59 -33 -57 -48 -60
-69 -60 -345 1 -276 5 -297 65 -343 42 -32 73 -38 191 -38 119 0 149 6 192 39
59 45 65 79 61 365 l-3 256 -28 36 c-45 59 -77 70 -202 72 -60 1 -114 1 -120
-1z m173 -173 c9 -1 12 -50 12 -211 l0 -210 -85 0 -85 0 0 208 c0 115 2 211 5
213 3 4 104 4 153 0z"/>
</g>
</svg>
